 <svg  version="1.0" xmlns="http://www.w3.org/2000/svg"  width="117.000000pt" height="114.000000pt" viewBox="0 0 117.000000 114.000000"  preserveAspectRatio="xMidYMid meet">  <g transform="translate(0.000000,114.000000) scale(0.100000,-0.100000)" fill="#ff9d0b" stroke="none"> <path d="M124 1061 c-44 -27 -55 -63 -52 -172 3 -86 5 -94 23 -94 19 0 20 8 23 102 2 78 6 104 19 115 10 8 54 15 117 18 93 5 101 7 101 25 0 18 -8 20 -100 23 -84 2 -105 -1 -131 -17z"/> <path d="M784 1065 c-11 -29 7 -35 105 -35 127 0 129 -2 133 -135 3 -92 5 -100 23 -100 18 0 20 8 23 97 5 160 -23 188 -183 188 -74 0 -97 -3 -101 -15z"/> <path d="M255 917 c-3 -7 -4 -89 -3 -182 l3 -170 68 -3 67 -3 0 -64 0 -64 105 -3 c58 -2 110 -1 115 0 6 2 10 90 10 228 l0 223 133 3 c124 3 132 4 132 23 0 19 -7 20 -155 20 l-155 0 -3 -222 -2 -221 -65 -4 -65 -3 0 36 c0 27 -6 41 -22 52 -13 8 -20 18 -17 21 4 4 14 0 23 -9 9 -9 28 -15 43 -13 l28 3 0 180 0 180 -118 3 c-90 2 -119 0 -122 -11z m200 -172 l0 -135 -77 0 -77 0 -3 135 -3 135 80 0 80 0 0 -135z"/> <path d="M676 821 c-3 -5 -3 -16 0 -25 5 -13 22 -16 88 -16 l81 0 0 -40 0 -39 -85 -3 c-77 -3 -85 -5 -85 -23 0 -19 7 -20 105 -20 l105 0 0 85 0 85 -102 3 c-56 1 -104 -2 -107 -7z"/> <path d="M846 594 c-13 -33 -6 -151 9 -164 26 -22 35 0 35 91 0 81 -2 89 -19 89 -10 0 -22 -7 -25 -16z"/> <path d="M77 364 c-4 -4 -7 -50 -7 -101 0 -158 29 -186 188 -181 89 3 97 5 97 23 0 18 -8 20 -101 23 -131 3 -132 5 -136 137 -2 81 -6 100 -18 103 -9 1 -19 0 -23 -4z"/> <path d="M240 298 c0 -58 2 -68 18 -68 14 0 17 8 15 43 -2 40 -2 41 9 15 13 -31 38 -38 38 -10 0 9 5 24 11 32 8 11 9 3 5 -32 -5 -41 -3 -48 12 -48 14 0 17 10 16 68 0 37 -3 66 -7 65 -4 -2 -13 -3 -21 -3 -8 0 -17 -15 -21 -36 -7 -41 -14 -39 -24 7 -5 24 -12 33 -29 34 -21 2 -22 -2 -22 -67z"/> <path d="M420 363 l-35 -4 0 -64 0 -65 43 0 c31 0 42 4 39 13 -2 6 -14 11 -25 9 -17 -2 -22 2 -22 17 0 14 6 21 20 21 11 0 20 5 20 10 0 6 -9 10 -20 10 -11 0 -20 7 -20 15 0 8 9 15 20 15 11 0 20 7 20 15 0 8 -1 14 -2 13 -2 -1 -19 -3 -38 -5z"/> <path d="M480 300 c0 -56 3 -70 15 -70 11 0 15 11 16 38 l0 37 16 -37 c25 -62 43 -49 43 30 0 54 -3 69 -15 69 -11 0 -15 -12 -16 -41 l-1 -41 -15 43 c-24 67 -43 55 -43 -28z"/> <path d="M590 299 c0 -55 3 -69 15 -69 10 0 15 11 16 38 l1 37 15 -37 c9 -22 23 -38 32 -38 14 0 15 11 13 71 -3 48 -7 69 -15 66 -7 -2 -13 -15 -14 -28 -2 -43 -4 -44 -17 -10 -7 19 -20 35 -29 37 -15 2 -17 -8 -17 -67z"/> <path d="M705 362 c-7 -7 -6 -97 1 -116 4 -11 19 -16 45 -16 l39 0 0 64 c0 48 -4 65 -15 70 -12 4 -15 -5 -15 -54 0 -33 -4 -60 -10 -60 -6 0 -10 26 -10 58 0 46 -3 59 -15 59 -8 0 -17 -3 -20 -5z"/> <path d="M1027 364 c-4 -4 -7 -49 -7 -100 0 -128 -5 -133 -135 -136 -92 -3 -100 -5 -100 -23 0 -18 8 -20 97 -23 162 -5 191 24 186 186 -2 78 -6 97 -18 100 -9 1 -19 0 -23 -4z"/> <path d="M817 353 c-4 -3 -7 -19 -7 -35 0 -23 4 -28 24 -28 29 0 43 -17 27 -33 -8 -8 -11 -8 -11 1 0 7 -9 12 -21 12 -14 0 -19 -5 -17 -17 2 -14 13 -18 43 -18 39 0 40 1 40 35 0 31 -3 35 -27 38 -28 3 -36 16 -19 27 5 3 12 1 16 -5 11 -18 35 -11 35 10 0 17 -7 20 -38 20 -21 0 -42 -3 -45 -7z"/> </g> </svg> 