<svg width="369" height="369" viewBox="0 0 369 369" fill="none" xmlns="http://www.w3.org/2000/svg">
<path fill-rule="evenodd" clip-rule="evenodd" d="M40.1842 18.5465C28.234 18.5465 18.5465 28.234 18.5465 40.1842V96.7511C18.5465 101.873 14.3948 106.024 9.27327 106.024C4.15179 106.024 0 101.873 0 96.7511V40.1842C0 17.9911 17.9911 0 40.1842 0H96.7511C101.873 0 106.024 4.15179 106.024 9.27327C106.024 14.3948 101.873 18.5465 96.7511 18.5465H40.1842ZM262.434 9.27327C262.434 4.15179 266.585 0 271.707 0H328.274C350.467 0 368.458 17.9911 368.458 40.1842V96.7511C368.458 101.873 364.306 106.024 359.185 106.024C354.063 106.024 349.911 101.873 349.911 96.7511V40.1842C349.911 28.234 340.224 18.5465 328.274 18.5465H271.707C266.585 18.5465 262.434 14.3948 262.434 9.27327ZM9.27327 262.434C14.3948 262.434 18.5465 266.585 18.5465 271.707V328.274C18.5465 340.224 28.234 349.911 40.1842 349.911H96.7511C101.873 349.911 106.024 354.063 106.024 359.185C106.024 364.306 101.873 368.458 96.7511 368.458H40.1842C17.9911 368.458 0 350.467 0 328.274V271.707C0 266.585 4.15179 262.434 9.27327 262.434ZM359.185 262.434C364.306 262.434 368.458 266.585 368.458 271.707V328.274C368.458 350.467 350.467 368.458 328.274 368.458H271.707C266.585 368.458 262.434 364.306 262.434 359.185C262.434 354.063 266.585 349.911 271.707 349.911H328.274C340.224 349.911 349.911 340.224 349.911 328.274V271.707C349.911 266.585 354.063 262.434 359.185 262.434Z" fill="url(#paint0_angular_1680_85)"/>
<path fill-rule="evenodd" clip-rule="evenodd" d="M183.673 63.9931C183.673 58.638 188.014 54.2969 193.369 54.2969H293.564C298.919 54.2969 303.26 58.638 303.26 63.9931C303.26 69.3482 298.919 73.6894 293.564 73.6894H203.065V231.415C203.065 236.77 198.724 241.112 193.369 241.112H126.142C120.786 241.112 116.445 236.77 116.445 231.415V182.288C116.445 176.932 120.786 172.591 126.142 172.591C131.497 172.591 135.838 176.932 135.838 182.288V221.719H183.673V63.9931Z" fill="url(#paint1_angular_1680_85)"/>
<path fill-rule="evenodd" clip-rule="evenodd" d="M64.7324 65.286C64.7324 59.2169 69.6524 54.2969 75.7215 54.2969H149.413C155.482 54.2969 160.402 59.2168 160.402 65.286V180.348C160.402 186.417 155.482 191.337 149.413 191.337H75.7215C69.6524 191.337 64.7324 186.417 64.7324 180.348V65.286ZM84.125 73.6894V171.945H141.01V73.6894H84.125Z" fill="url(#paint2_angular_1680_85)"/>
<path fill-rule="evenodd" clip-rule="evenodd" d="M303.916 148.027C303.916 154.096 298.996 159.016 292.927 159.016L232.164 159.016C226.809 159.016 222.467 154.675 222.467 149.32C222.467 143.965 226.809 139.624 232.164 139.624L284.523 139.624L284.523 111.181L232.164 111.181C226.809 111.181 222.467 106.84 222.467 101.485C222.467 96.1298 226.809 91.7887 232.164 91.7887L292.927 91.7887C298.996 91.7887 303.916 96.7087 303.916 102.778L303.916 148.027Z" fill="url(#paint3_angular_1680_85)"/>
<path fill-rule="evenodd" clip-rule="evenodd" d="M294.22 171.944C299.575 171.944 303.916 176.286 303.916 181.641L303.916 232.061C303.916 237.416 299.575 241.757 294.22 241.757C288.865 241.757 284.523 237.416 284.523 232.061L284.523 181.641C284.523 176.286 288.865 171.944 294.22 171.944Z" fill="url(#paint4_angular_1680_85)"/>
<path d="M292.493 302.109V295.05C292.493 293.912 291.846 293.343 290.553 293.343H283.107C279.28 293.343 276.565 292.516 274.962 290.861C273.41 289.154 272.635 286.724 272.635 283.569V273.33C272.635 266.918 276.41 263.711 283.96 263.711H294.587C302.137 263.711 305.912 266.918 305.912 273.33V279.303H292.338V275.114C292.338 273.977 291.691 273.408 290.398 273.408H288.149C286.856 273.408 286.21 273.977 286.21 275.114V282.483C286.21 283.621 286.856 284.19 288.149 284.19H295.44C299.267 284.19 301.982 284.991 303.585 286.595C305.24 288.198 306.067 290.551 306.067 293.653V303.893C306.067 310.305 302.292 313.511 294.742 313.511H284.193C276.591 313.511 272.79 310.305 272.79 303.893V297.92H286.365V302.109C286.365 303.246 287.011 303.815 288.304 303.815H290.553C291.846 303.815 292.493 303.246 292.493 302.109Z" fill="url(#paint5_angular_1680_85)"/>
<path d="M253.59 263.711H267.165V303.893C267.165 310.305 263.364 313.511 255.762 313.511H244.282C236.68 313.511 232.879 310.305 232.879 303.893V263.711H246.454V302.109C246.454 303.246 247.1 303.815 248.393 303.815H251.651C252.944 303.815 253.59 303.246 253.59 302.109V263.711Z" fill="url(#paint6_angular_1680_85)"/>
<path d="M214.251 263.711H226.663V313.511H215.027L203.935 287.37V313.511H191.523V263.711H203.159L214.251 290.318V263.711Z" fill="url(#paint7_angular_1680_85)"/>
<path d="M172.886 263.711H185.297V313.511H173.662L162.569 287.37V313.511H150.158V263.711H161.794L172.886 290.318V263.711Z" fill="url(#paint8_angular_1680_85)"/>
<path d="M128.887 303.815H145.875V313.511H115.312L115.312 263.711H145.177V273.408H128.887V283.569H142.927V293.266H128.887V303.815Z" fill="url(#paint9_angular_1680_85)"/>
<path d="M75.4466 313.511H63.3457L63.3457 263.711H78.1616L86.2289 290.318L94.2962 263.711H109.112V313.511H97.0887V281.863L90.8831 302.729H81.5747L75.4466 282.018L75.4466 313.511Z" fill="url(#paint10_angular_1680_85)"/>
<defs>
<radialGradient id="paint0_angular_1680_85" cx="0" cy="0" r="1" gradientUnits="userSpaceOnUse" gradientTransform="translate(187.772 185.41) rotate(44.2949) scale(108.566)">
<stop stop-color="#9D4EDD"/>
<stop offset="1" stop-color="#3C096C"/>
</radialGradient>
<radialGradient id="paint1_angular_1680_85" cx="0" cy="0" r="1" gradientUnits="userSpaceOnUse" gradientTransform="translate(211.649 148.303) rotate(44.2949) scale(55.045)">
<stop stop-color="#9D4EDD"/>
<stop offset="1" stop-color="#3C096C"/>
</radialGradient>
<radialGradient id="paint2_angular_1680_85" cx="0" cy="0" r="1" gradientUnits="userSpaceOnUse" gradientTransform="translate(113.487 123.256) rotate(54.4158) scale(34.6736 32.8275)">
<stop stop-color="#9D4EDD"/>
<stop offset="1" stop-color="#3C096C"/>
</radialGradient>
<radialGradient id="paint3_angular_1680_85" cx="0" cy="0" r="1" gradientUnits="userSpaceOnUse" gradientTransform="translate(262.409 125.187) rotate(-141.155) scale(22.0549 21.5545)">
<stop stop-color="#9D4EDD"/>
<stop offset="1" stop-color="#3C096C"/>
</radialGradient>
<radialGradient id="paint4_angular_1680_85" cx="0" cy="0" r="1" gradientUnits="userSpaceOnUse" gradientTransform="translate(294.158 207.522) rotate(105.164) scale(15.2546 7.70522)">
<stop stop-color="#9D4EDD"/>
<stop offset="1" stop-color="#3C096C"/>
</radialGradient>
<radialGradient id="paint5_angular_1680_85" cx="0" cy="0" r="1" gradientUnits="userSpaceOnUse" gradientTransform="translate(289.673 288.771) rotate(55.4693) scale(12.4387 11.6209)">
<stop stop-color="#9D4EDD"/>
<stop offset="1" stop-color="#3C096C"/>
</radialGradient>
<radialGradient id="paint6_angular_1680_85" cx="0" cy="0" r="1" gradientUnits="userSpaceOnUse" gradientTransform="translate(250.352 288.771) rotate(54.792) scale(12.5416 11.8197)">
<stop stop-color="#9D4EDD"/>
<stop offset="1" stop-color="#3C096C"/>
</radialGradient>
<radialGradient id="paint7_angular_1680_85" cx="0" cy="0" r="1" gradientUnits="userSpaceOnUse" gradientTransform="translate(209.431 288.771) rotate(54.1258) scale(12.6462 12.0136)">
<stop stop-color="#9D4EDD"/>
<stop offset="1" stop-color="#3C096C"/>
</radialGradient>
<radialGradient id="paint8_angular_1680_85" cx="0" cy="0" r="1" gradientUnits="userSpaceOnUse" gradientTransform="translate(168.066 288.771) rotate(54.1258) scale(12.6462 12.0136)">
<stop stop-color="#9D4EDD"/>
<stop offset="1" stop-color="#3C096C"/>
</radialGradient>
<radialGradient id="paint9_angular_1680_85" cx="0" cy="0" r="1" gradientUnits="userSpaceOnUse" gradientTransform="translate(130.888 288.771) rotate(57.83) scale(12.1059 10.9153)">
<stop stop-color="#9D4EDD"/>
<stop offset="1" stop-color="#3C096C"/>
</radialGradient>
<radialGradient id="paint10_angular_1680_85" cx="0" cy="0" r="1" gradientUnits="userSpaceOnUse" gradientTransform="translate(86.6689 288.771) rotate(46.7135) scale(14.0772 14.0563)">
<stop stop-color="#9D4EDD"/>
<stop offset="1" stop-color="#3C096C"/>
</radialGradient>
</defs>
</svg>
